<?xml version="1.0" encoding="UTF-8" standalone="no"?>
<svg width="31px" height="25px" viewBox="0 0 31 25" version="1.1" xmlns="http://www.w3.org/2000/svg" xmlns:xlink="http://www.w3.org/1999/xlink">
    <!-- Generator: Sketch 3.6.1 (26313) - http://www.bohemiancoding.com/sketch -->
    <title>Group</title>
    <desc>Created with Sketch.</desc>
    <defs></defs>
    <g id="Page-1" stroke="none" stroke-width="1" fill="none" fill-rule="evenodd">
        <g id="Group" stroke="#7D7D7D" stroke-width="0.75">
            <path d="M29.3346393,11.6300795 C30.0500104,10.4679322 30.4625531,9.09972712 30.4625531,7.63521878 C30.4625531,3.42698426 27.0412774,0 22.8209198,0 L18.3392686,0 C14.1178569,0 10.6976353,3.41840389 10.6976353,7.63521878 C10.6976353,11.8434533 14.1189111,15.2704376 18.3392686,15.2704376 L22.8209198,15.2704376 C23.3818171,15.2704376 23.9285699,15.2100879 24.4550347,15.0955344 L30.6976353,17.9076284 L29.3346393,11.6300795 Z" id="Combined-Shape"></path>
            <path d="M18.637004,18.6300795 C19.3523751,17.4679322 19.7649178,16.0997271 19.7649178,14.6352188 C19.7649178,10.4269843 16.3436421,7 12.1232845,7 L7.64163328,7 C3.4202216,7 -1.56319402e-13,10.4184039 -1.56319402e-13,14.6352188 C-1.56319402e-13,18.8434533 3.42127576,22.2704376 7.64163328,22.2704376 L12.1232845,22.2704376 C12.6841818,22.2704376 13.2309346,22.2100879 13.7573994,22.0955344 L20,24.9076284 L18.637004,18.6300795 Z" id="Combined-Shape" transform="translate(10.000000, 15.953814) scale(-1, 1) translate(-10.000000, -15.953814) "></path>
        </g>
    </g>
</svg>