<?xml version="1.0" encoding="UTF-8" standalone="no"?>
<svg width="19px" height="30px" viewBox="0 0 19 30" version="1.1" xmlns="http://www.w3.org/2000/svg" xmlns:xlink="http://www.w3.org/1999/xlink">
    <!-- Generator: Sketch 3.6.1 (26313) - http://www.bohemiancoding.com/sketch -->
    <title>Group 6</title>
    <desc>Created with Sketch.</desc>
    <defs>
        <path id="path-1" d="M9.448471,30.6666667 L0.00805310801,30.6666667 L0.00805310801,8.93782778e-15 L18.8888889,0 L18.8888889,30.6666667 L9.448471,30.6666667 L9.448471,30.6666667 Z"></path>
    </defs>
    <g id="Welcome" stroke="none" stroke-width="1" fill="none" fill-rule="evenodd">
        <g id="Mobile-Portrait" transform="translate(-37.000000, -618.000000)">
            <g id="Group-6" transform="translate(37.000000, 618.000000)">
                <mask id="mask-2" fill="white">
                    <use xlink:href="#path-1"></use>
                </mask>
                <g id="Clip-4"></g>
                <path d="M14.2889156,25.3645172 L14.2889156,25.3651022 L14.2889156,25.3645172 L14.2889156,25.3645172 Z M6.20397339,1.47324316 C5.99762983,1.56816007 5.77033178,1.70446602 5.54565304,1.74921883 C5.26378599,1.80435547 4.9202196,1.70007849 4.6446098,1.6376293 L4.55933665,1.4728044 L4.48381316,1.42059279 L4.27805167,1.3713062 L4.21518819,1.31967959 L4.14955988,1.22256891 C3.99589359,1.12779825 3.74502173,1.11258814 3.75433484,1.35960611 L3.69452723,17.8589149 L3.64359616,17.8855326 C3.44787537,18.0651288 3.26757941,18.2344875 3.26874355,18.5204083 L3.30439529,18.7304247 L3.44380088,18.9446825 L3.22770767,19.1248637 L3.10067105,19.2734548 C2.97581719,19.5864319 3.24284147,19.8761552 3.41818984,20.1135206 L3.46621055,20.3511785 L3.4221188,20.5111771 L3.54668163,20.7633139 L3.76874106,20.8708084 L3.75884588,20.9955605 L3.68521412,21.0821411 L3.61274649,21.2449185 L3.57462095,21.3854657 L3.59412028,21.5868534 L3.71213482,21.8539077 L3.86027145,22.2730632 L3.75404381,22.5572289 L3.48236297,22.6585809 L3.37016912,22.7355089 L3.03213239,23.4536014 L2.52282177,24.4127156 L2.48542382,24.6010869 L2.36348031,24.7741019 L2.24779404,24.8178309 L2.09951189,24.9724182 L1.99808632,25.2343538 L1.86464694,25.2491252 L1.57433989,25.3077718 L1.4315874,25.4054675 L1.36406736,25.5068195 L1.19555831,25.8499244 L1.14535483,26.0706171 L1.21200176,26.2526997 L1.44832189,26.47778 L1.26715283,26.5371579 C1.14448173,26.5868832 1.0408734,26.7044691 1.05484306,26.8439925 L1.08059963,27.0259288 C0.913982296,27.1050506 0.916747125,27.2774806 0.886770557,27.4308979 L0.793202921,28.0856637 L0.777341533,28.45641 C0.776759464,28.6389313 0.79654982,28.8034637 0.902777462,28.9577585 C0.902777462,28.9577585 1.09486032,29.1145396 1.36930599,29.1784513 C1.47218673,29.1999502 1.54188953,29.1739175 1.54188953,29.1739175 L1.64899027,29.100792 C1.8752697,28.9097882 1.92998422,28.8172113 1.88662006,28.518128 L1.84325589,28.3395555 L2.01947737,28.5772134 C2.29988924,28.696408 2.43332862,28.6683278 2.64709356,28.5323143 L2.70078945,28.5214917 C2.87832058,28.5694621 2.78999157,28.8011237 2.9069875,28.9165157 L2.97581719,28.9634623 C3.13865107,29.025619 3.28460494,29.0042664 3.4481664,28.9577585 L3.54420783,28.8937006 C3.54420783,28.8937006 3.71984724,28.7255119 3.73847346,28.5501569 C3.74676794,28.4663551 3.71737344,28.3278554 3.71737344,28.3278554 L3.81705281,28.3869408 C4.05293638,28.4944353 4.19321508,28.3481843 4.36478,28.195352 L4.46373177,28.1750231 L4.58261942,28.2136333 L5.51014681,28.840319 L5.79841662,28.9071557 L5.92356152,29.2059465 L6.03008019,29.2953059 L6.14532991,29.3267498 L6.26494515,29.3165123 L6.44160317,29.2395842 L6.55961772,29.130481 L6.78269577,28.45875 L7.02701935,28.2627737 L7.2770181,28.2401048 C7.47463062,28.1684418 7.5904624,27.9979131 7.72492041,27.8456658 L7.79302251,27.8186093 L8.14648408,28.45524 L8.21225791,28.5020404 L8.27424829,28.5226617 L8.43562699,28.526903 L8.50343806,28.4954591 L8.60646432,28.5643433 C8.82022927,28.599151 9.04214318,28.6047086 9.22447638,28.4707426 L9.25096053,28.3432117 C9.44042408,28.373047 9.54548758,28.3356067 9.69638904,28.2212384 C9.74862976,28.1435791 9.77656909,28.0510022 9.75357735,27.9588641 L9.66946834,27.8006205 L9.66466627,27.4557606 L9.90855329,27.4143715 L10.0757527,27.2935682 L10.1426907,27.1974813 L10.1866369,27.0232963 L10.2612873,26.9918523 L10.3688246,26.8611039 C10.6755751,26.7888559 10.6151854,26.8581789 10.666553,27.1347396 C10.700313,27.3166758 10.9105856,27.4409892 11.0508642,27.5405861 C11.2439657,27.6295068 11.4171313,27.7342225 11.6287135,27.6488119 L11.7522577,27.6714808 L11.9594744,27.8738922 C11.9594744,27.8738922 12.048822,27.9522828 12.1567959,27.9433615 C12.2398863,27.9345864 12.300858,27.8705284 12.300858,27.8705284 L12.3968994,27.7557214 L12.7695693,27.6714808 C12.9072287,27.6355031 12.9907556,27.5168935 13.0118556,27.3801488 C13.0280081,27.0310476 12.9523391,26.4820213 13.2113599,26.2095556 C13.346982,26.0660834 13.46034,25.948205 13.4649966,25.7396511 L13.6035291,25.7953727 L13.7391512,25.839833 L13.829954,25.8290105 L14.2669425,25.5667824 C14.4881288,25.2574615 14.548664,24.9655444 14.64034,24.5987469 L14.707569,24.5199176 L15.0863505,24.4387483 C15.3574493,24.3036123 15.3942652,24.0245654 15.6752591,23.8800694 L15.7384136,23.7728674 C15.7746475,23.5357945 15.7483088,23.4056311 15.6362605,23.1937133 C15.6241825,23.0068045 15.6566329,22.7502802 15.5249397,22.5986179 L15.5764529,22.4987285 L16.2439408,22.4386193 L16.3332884,22.4643595 C16.3332884,22.4643595 16.6736534,22.8108282 16.7976342,22.816532 C16.850748,22.8225283 16.9431515,22.7988356 16.9431515,22.7988356 L17.9341245,22.1445085 L18.2107529,22.1439235 L18.2132267,21.7385157 L17.8759175,21.7357369 L16.8424535,22.3978153 L16.7814818,22.3878702 C16.6330541,22.1804863 16.5191141,22.0612917 16.2587836,22.027654 L15.3481362,22.1550386 C15.0876602,22.3363899 15.0747091,22.6408845 15.2186258,22.8931675 C15.2337596,23.1461818 15.2344872,23.3344068 15.3580314,23.5612422 C15.1669671,23.7140745 15.0621947,23.8183514 14.9853615,24.0317317 L14.934867,24.0614206 L14.5071916,24.1602863 C14.316855,24.254472 14.258648,24.4902286 14.1845797,24.6733349 L14.0451741,25.1774622 L13.9916237,25.2628728 C13.9210478,25.3143531 13.8261706,25.4174601 13.7388602,25.3659797 C13.560747,25.2617028 13.4415683,25.2894905 13.2561792,25.3651022 C13.1166281,25.4274052 13.0873791,25.6578968 13.0480894,25.7906927 L12.7355182,26.1775266 C12.7355182,26.1775266 12.6818224,26.2641072 12.6812403,26.3259714 C12.6614499,26.3860806 12.6141568,27.2692905 12.6141568,27.2692905 L12.103682,27.4249016 C11.9505978,27.3190159 11.7860177,27.2075726 11.5911701,27.2360915 C11.5911701,27.2360915 11.4909086,27.2804056 11.4452162,27.2732393 C11.2486223,27.2355065 11.0432973,27.0098412 11.0432973,27.0098412 L11.0240891,26.8847966 C10.9750497,26.4954764 10.9078207,26.1892267 10.4568626,26.3522966 C10.2914094,26.412552 10.1114044,26.4640324 9.96035746,26.5571943 C9.76230839,26.6791676 9.87377465,26.9228218 9.68460214,27.0412852 L9.44755443,27.0700966 C9.364173,27.0961293 9.30072745,27.1601872 9.28050055,27.2455978 L9.28370193,27.9256651 C9.12814391,27.8439108 9.01696868,27.9648604 8.90215552,28.0542197 C8.81062512,28.0629948 8.42194836,28.1501604 8.3676704,28.0719161 C8.25242069,27.9065062 8.17907996,27.6994148 8.09613509,27.5163085 C8.09613509,27.5163085 8.03690954,27.4180278 7.92035017,27.3823425 C7.73292386,27.3277909 7.44523612,27.5435112 7.44523612,27.5435112 L7.1846146,27.8351357 C6.93199654,27.8551721 6.76275989,27.9274201 6.55001357,28.0510022 L6.42195833,28.1738531 C6.36433347,28.2556074 6.33784932,28.3614931 6.3653521,28.4591888 L6.24791962,28.8657666 L6.11375265,28.6377613 L5.98904431,28.5232467 L5.74515728,28.489024 C5.53575786,28.3592994 5.32635844,28.2295747 5.11666798,28.1004351 C4.89213476,27.9622278 4.60517461,27.6973672 4.32330756,27.7728328 L3.9648984,27.9919168 C3.75768174,27.9142575 3.44103606,27.7823391 3.35285256,28.1193014 C3.3246222,28.2270884 3.41818984,28.589206 3.20166007,28.4237961 L3.12599106,28.3047477 C2.96213856,28.1408003 2.74502672,28.0755724 2.52107557,28.1408003 L2.35009272,28.2444923 L2.29057613,28.237326 L2.10402293,27.9825567 L1.99881391,27.9037274 C1.89695178,27.8528321 1.77951931,27.8599984 1.68056753,27.9136725 C1.52209917,27.9942568 1.43769913,28.2272347 1.43522533,28.3961546 C1.43522533,28.3961546 1.50812951,28.703428 1.39870049,28.7477421 C1.16485415,28.8610866 1.22800867,28.1927194 1.23295626,28.131294 C1.25100041,27.883106 1.27180938,27.6355031 1.29320043,27.3871688 C1.43377016,27.2947382 1.53694194,27.2195652 1.53257642,27.0364589 L1.48353708,26.8896229 L1.60664473,26.8599339 L1.70661513,26.8008485 L1.86377384,26.6183272 L1.89695178,26.5057139 L1.88705661,26.3900294 L1.85562487,26.3106151 L1.5811792,26.0589171 C1.5811792,26.0589171 1.53723297,25.8278405 1.74124825,25.6739844 C1.97873252,25.6567268 2.47887554,25.6810044 2.4020424,25.2994355 L2.43769414,25.2077361 L2.66979427,25.0489075 L2.85125436,24.7935532 L2.89956611,24.6152733 L2.9717427,24.4359695 L3.56778164,23.3469844 C3.61696649,23.1385767 3.72333965,23.0654512 3.89927009,22.9620517 L4.03765706,22.8694748 L4.13893712,22.6963136 L4.2648096,22.3972303 L4.24923924,21.9581847 L4.0194674,21.4015533 C4.15261575,21.0926712 4.21649785,20.9464202 4.1287509,20.6694207 L3.98628945,20.5217072 L3.86259973,20.4608668 L3.86521904,20.0969943 L3.47508711,19.4988276 L3.73687276,19.2279707 L3.85459628,19.018393 L3.85808869,18.9003684 L3.81428798,18.7304247 L3.68143067,18.561651 L3.77907279,18.2959129 C4.24516476,18.1550732 4.10124813,17.6398309 4.10284882,17.2450994 C4.10619572,16.4158561 4.10954262,15.5866128 4.112744,14.757077 C4.12205711,12.3556353 4.13093366,9.95390103 4.14024677,7.55231304 C4.14795919,5.62955088 4.15508954,3.70693498 4.16251092,1.78446533 L4.21795302,1.79850542 L4.28518202,1.9027824 L4.440449,2.0108619 C4.73875951,2.07287234 5.04099898,2.12917898 5.34440259,2.15462666 C5.63543722,2.17890433 5.84338147,2.07711362 6.10545816,1.96099031 C6.66671846,1.71192482 7.22099393,1.44764923 7.77425078,1.18205738 L8.31732141,1.17796235 L8.31717589,0.80253598 L7.61025276,0.802828482 C7.14357872,1.03141883 6.67603157,1.25679165 6.20397339,1.47324316 Z" id="Fill-5" stroke="#7D7D7D" stroke-width="0.15" fill="#7D7D7D" mask="url(#mask-2)"></path>
            </g>
        </g>
    </g>
</svg>